<?xml version="1.0" encoding="UTF-8"?>
<svg id="Layer_1" data-name="Layer 1" xmlns="http://www.w3.org/2000/svg" viewBox="0 0 68.12 39.23">
  <defs>
    <style>
      .cls-1 {
        fill: #5b7a56;
        stroke: #000;
      }

      .cls-1, .cls-2 {
        stroke-miterlimit: 10;
        stroke-width: .5px;
      }

      .cls-2 {
        fill: #006837;
        stroke: #5b7a56;
      }
    </style>
  </defs>
  <path class="cls-1" d="M1.88,5.09c5.53,5.11-8.44,29.1,3.06,32.92,5.15,1.71,9.44.92,13.68-.6,8.36-3-5.45-11.57,2.95-14.45,6.08-2.09,19.03.97,23.87-1.27,3.07-1.42,1.63-4.41-2.81-5.58-7.01-1.85-18.23,1.72-23.46,0-3.23-1.06-3.41-3.88.19-5.33,8.92-3.59,35.31,2.45,45.03,0,5.66-1.43,4.5-12.72-4.21-10.15C53.59,2.57,24.11,4.48,1.88,5.09Z"/>
  <path class="cls-2" d="M29.14,12.36c-.82.04,2.64,26.29,12.35,26.62,9.46.32,20.29-24.1,17.84-24.55-1.88-.35-12.2,16.55-18.76,13.1-1.49-.78-5.02-15.45-11.44-15.16Z"/>
</svg>