<?xml version="1.0" encoding="UTF-8"?>
<svg id="Layer_1" data-name="Layer 1" xmlns="http://www.w3.org/2000/svg" viewBox="0 0 101.36 100.75">
  <defs>
    <style>
      .cls-1 {
        fill: #5b7a56;
        stroke-width: .75px;
      }

      .cls-1, .cls-2, .cls-3, .cls-4 {
        stroke-miterlimit: 10;
      }

      .cls-1, .cls-3, .cls-4 {
        stroke: #00211f;
      }

      .cls-2 {
        fill: #5ba163;
        stroke: #e5ffd4;
        stroke-width: .25px;
      }

      .cls-3 {
        fill: #5b6b42;
        stroke-width: .5px;
      }

      .cls-4 {
        fill: #fff;
      }
    </style>
  </defs>
  <path class="cls-2" d="M7.63,37.13c-2.77.61-5.36,2.08-7.4,4.18,2.9.97,5.74,2.13,8.51,3.48-2.69,2.19-5.39,4.37-8.08,6.57,2.54.81,5.08,1.61,7.62,2.42-1.91,2.78-3.54,5.79-4.84,8.95,2.47-.61,5-.94,7.53-.97-1.19,3.69-2.53,7.31-4.01,10.88,2.52-.81,5.13-1.3,7.76-1.43-1.02,3.07-2.24,6.07-3.64,8.95,2.71-1,5.6-1.44,8.47-1.3.59,5.61,1.19,11.21,1.78,16.83,2.31-3.06,4.87-5.91,7.63-8.5-.05,2.83.23,5.66.83,8.42,2.18-2.32,4.64-4.33,7.3-5.97,1.56,3.58,3.11,7.16,4.67,10.74.72-2.71,1.78-5.31,3.14-7.71,2.43,1.77,4.58,3.97,6.34,6.49.43-2,.86-4.01,1.29-6.01,2.08,1.43,4.15,2.86,6.23,4.29.63-2.19,1.25-4.39,1.88-6.58,3.18,1.5,6.26,3.26,9.19,5.26-.13-2.68.05-5.38.53-8.02,2.38,1.44,4.75,2.87,7.13,4.3.13-2.71.26-5.42.38-8.13,3.01,1.08,6.01,2.15,9.02,3.23.1-2.67.03-5.35-.22-8.01,2.65-.1,5.29-.21,7.94-.3-1.93-1.63-3.62-3.59-4.98-5.78,3.24.09,6.49-.31,9.62-1.19-1.02-2.55-3.43-4.39-6-4.59,2.57-1.12,5.23-2,7.94-2.63-1.34-3.11-3.47-5.83-6.1-7.79,1.96-1.06,3.84-2.29,5.61-3.69-2.48-.16-4.93-.73-7.25-1.69,1.53-2.48,3.24-4.83,5.12-7.02-1.94.16-3.88.33-5.82.5.82-2.59,2.26-4.96,4.14-6.81-2.08.02-4.16.03-6.23.05.52-2.74,2.11-5.24,4.29-6.76-2.72.26-5.45.51-8.17.76,2.13-3.24,4.64-6.19,7.44-8.77-4.36-.45-8.75-.55-13.13-.3.5-3.28,1.52-6.46,3-9.38-2.57,1.16-5.14,2.33-7.71,3.49.58-3.79.93-7.62,1.02-11.47-3.12,1.71-6.05,3.82-8.72,6.26-.02-2.3-.04-4.61-.06-6.91-2.47,2.04-4.94,4.08-7.41,6.13-1.41-3.23-3.07-6.33-4.96-9.27-.99,2.2-1.98,4.4-2.97,6.6-.34-3.35-1.92-6.54-4.32-8.71-1.07,2.82-2.13,5.64-3.2,8.46-1.08-2.66-2.77-5.02-4.89-6.83-.86,2.4-1.33,4.96-1.37,7.53-2.05-2.26-4.6-4-7.38-5.04-.57,2.92-1.14,5.84-1.71,8.76-2.94-.91-5.79-2.17-8.48-3.73.31,3.27.92,6.51,1.8,9.65-3.34-.48-6.68-.97-10.02-1.46,1.07,1.9,2.36,3.66,3.84,5.21-2.94.23-5.9.02-8.78-.62,1.35,2.44,2.48,5.03,3.35,7.7-.22-.68-7.46.92-8.03,1.51-1.78,1.85,2.08,4.29,3.53,5.79h.02v-.02Z"/>
  <path class="cls-3" d="M11.45,37.67c-2.51.59-4.86,2-6.71,4.01,2.63.93,5.21,2.04,7.71,3.34-2.44,2.1-4.88,4.2-7.33,6.3,2.31.77,4.61,1.54,6.91,2.32-1.74,2.67-3.21,5.55-4.39,8.58,2.24-.59,4.53-.9,6.83-.93-1.08,3.54-2.29,7.02-3.64,10.43,2.28-.78,4.65-1.24,7.03-1.37-.93,2.94-2.03,5.82-3.3,8.59,2.46-.96,5.08-1.38,7.68-1.24.54,5.38,1.08,10.76,1.62,16.14,2.1-2.93,4.42-5.67,6.92-8.16-.05,2.71.21,5.43.75,8.07,1.98-2.22,4.21-4.15,6.62-5.73,1.41,3.44,2.82,6.86,4.23,10.3.65-2.6,1.61-5.09,2.85-7.4,2.2,1.69,4.15,3.81,5.75,6.22.39-1.92.78-3.84,1.17-5.76,1.88,1.37,3.76,2.74,5.65,4.11.57-2.1,1.13-4.21,1.7-6.32,2.89,1.44,5.68,3.13,8.33,5.05-.12-2.57.04-5.16.48-7.69,2.15,1.38,4.31,2.75,6.46,4.13.12-2.6.23-5.2.35-7.8,2.73,1.04,5.45,2.07,8.18,3.1.1-2.56.03-5.14-.2-7.69,2.4-.09,4.8-.2,7.2-.29-1.75-1.56-3.28-3.44-4.52-5.54,2.94.09,5.88-.3,8.73-1.15-.92-2.45-3.11-4.21-5.44-4.41,2.33-1.07,4.74-1.92,7.2-2.52-1.22-2.99-3.15-5.59-5.53-7.48,1.78-1.02,3.48-2.2,5.09-3.54-2.24-.16-4.47-.7-6.57-1.62,1.38-2.38,2.94-4.63,4.64-6.73-1.76.16-3.52.32-5.27.47.74-2.48,2.05-4.76,3.75-6.53-1.88.02-3.77.03-5.65.04.47-2.63,1.91-5.02,3.89-6.48-2.47.25-4.94.49-7.41.73,1.93-3.1,4.2-5.94,6.75-8.42-3.95-.43-7.94-.53-11.9-.29.46-3.14,1.38-6.2,2.72-9-2.33,1.11-4.66,2.23-6.99,3.35.53-3.64.84-7.31.92-11-2.83,1.64-5.49,3.67-7.9,6-.02-2.21-.03-4.42-.06-6.63-2.24,1.96-4.48,3.92-6.72,5.88-1.28-3.1-2.79-6.08-4.5-8.9-.9,2.11-1.79,4.22-2.69,6.33-.31-3.21-1.74-6.27-3.92-8.35-.97,2.71-1.93,5.41-2.9,8.12-.98-2.55-2.52-4.82-4.43-6.55-.78,2.3-1.2,4.76-1.24,7.22-1.86-2.17-4.17-3.84-6.69-4.83-.52,2.8-1.04,5.6-1.56,8.4-2.67-.87-5.25-2.08-7.69-3.58.28,3.14.83,6.24,1.63,9.26-3.03-.46-6.06-.94-9.09-1.4.97,1.82,2.14,3.51,3.48,5-2.66.22-5.35.02-7.96-.6,1.22,2.34,2.24,4.82,3.04,7.39-.2-.65-6.76.89-7.28,1.45-1.62,1.77,1.88,4.12,3.2,5.55h.02v.05Z"/>
  <path class="cls-1" d="M21.25,40.62c-1.83.45-3.55,1.53-4.89,3.07,1.92.71,3.8,1.57,5.63,2.56-1.78,1.61-3.57,3.21-5.35,4.82,1.68.59,3.36,1.19,5.04,1.78-1.27,2.04-2.34,4.25-3.2,6.58,1.63-.45,3.3-.69,4.98-.72-.79,2.71-1.67,5.37-2.65,7.99,1.67-.6,3.4-.95,5.13-1.05-.67,2.26-1.48,4.45-2.41,6.58,1.8-.73,3.71-1.06,5.6-.95.39,4.12.78,8.25,1.18,12.37,1.53-2.24,3.22-4.34,5.05-6.25-.04,2.08.15,4.16.55,6.18,1.44-1.7,3.07-3.18,4.83-4.39l3.09,7.89c.48-1.99,1.18-3.9,2.08-5.67,1.6,1.3,3.03,2.92,4.19,4.77.28-1.47.57-2.94.85-4.42,1.37,1.05,2.75,2.1,4.12,3.15.41-1.61.83-3.23,1.24-4.84,2.1,1.1,4.14,2.4,6.08,3.87-.09-1.97.03-3.96.35-5.89,1.57,1.05,3.14,2.11,4.71,3.17.09-1.99.17-3.98.26-5.97,1.99.79,3.98,1.58,5.96,2.37.07-1.96.02-3.94-.14-5.89,1.75-.07,3.5-.15,5.25-.22-1.28-1.2-2.4-2.63-3.29-4.25,2.14.07,4.29-.23,6.37-.88-.67-1.87-2.26-3.23-3.97-3.37,1.7-.82,3.46-1.47,5.25-1.93-.89-2.29-2.3-4.28-4.03-5.72,1.3-.78,2.54-1.68,3.71-2.71-1.64-.12-3.26-.54-4.79-1.24,1.01-1.82,2.14-3.55,3.38-5.16-1.28.12-2.57.24-3.84.37.54-1.91,1.49-3.64,2.74-5-1.37.01-2.75.02-4.12.03.34-2.02,1.39-3.85,2.84-4.97-1.8.19-3.6.38-5.41.56,1.41-2.38,3.06-4.55,4.92-6.44-2.88-.33-5.79-.4-8.68-.22.33-2.41,1-4.75,1.99-6.9-1.7.85-3.4,1.71-5.1,2.56.39-2.78.61-5.6.67-8.43-2.06,1.26-4,2.81-5.77,4.6-.01-1.69-.03-3.38-.04-5.08-1.63,1.5-3.27,3-4.9,4.5-.93-2.37-2.03-4.66-3.28-6.82-.65,1.62-1.31,3.24-1.96,4.85-.22-2.46-1.27-4.8-2.86-6.4-.71,2.07-1.41,4.15-2.12,6.22-.72-1.95-1.84-3.69-3.23-5.02-.57,1.76-.88,3.64-.91,5.53-1.36-1.66-3.04-2.94-4.88-3.7-.38,2.14-.76,4.29-1.13,6.43-1.95-.67-3.83-1.59-5.61-2.74.21,2.4.61,4.78,1.19,7.1-2.21-.36-4.42-.72-6.63-1.07.71,1.4,1.56,2.69,2.54,3.84-1.94.17-3.9.02-5.81-.46.89,1.8,1.64,3.69,2.22,5.66-.15-.5-4.93.68-5.31,1.11-1.18,1.36,1.37,3.16,2.34,4.25h-.02Z"/>
  <g>
    <path class="cls-4" d="M46.7,58.53c.13.73.3,1.55.85,1.91.26.18.58.22.88.26l4.41.57c-.05-11.24,2.28-22.49,6.73-32.47-.39.88-5.03,1.43-5.93,1.64-1.99.47-4,.85-6.01,1.16-2.27.35-6.42.44-7.51,3.4s2.26,7.75,3.18,10.4c1.47,4.24,2.61,8.64,3.41,13.12h-.01Z"/>
    <path class="cls-4" d="M53.88,63.21c-1.46-.26-2.94.08-4.35.56-1.69.59-3.61,1.85-3.58,3.88.03,1.9,1.78,3.12,3.38,3.61,1.29.39,2.63.56,3.96.5.39-.02.78-.06,1.13-.27.88-.54,1.02-1.88,1.05-3.02.04-1.31-.01-2.86-.96-3.61-.48-.38-1.15-.52-1.42-1.11"/>
  </g>
</svg>